<mxfile host="app.diagrams.net" agent="Mozilla/5.0 (X11; Ubuntu; Linux x86_64; rv:133.0) Gecko/20100101 Firefox/133.0" version="25.0.3">
  <diagram name="Page-1" id="Zor0CRvqTPRLobIag8Ww">
    <mxGraphModel dx="1669" dy="438" grid="1" gridSize="5" guides="1" tooltips="1" connect="1" arrows="1" fold="1" page="1" pageScale="1" pageWidth="850" pageHeight="1100" math="0" shadow="0">
      <root>
        <mxCell id="0" />
        <mxCell id="1" parent="0" />
        <mxCell id="oGKbib3P3BIxLK8cS7Yo-1" value="&lt;font style=&quot;font-size: 13px;&quot;&gt;&lt;b&gt;FFT &lt;br&gt;Pipeline&lt;/b&gt;&lt;/font&gt;" style="rounded=0;whiteSpace=wrap;html=1;fontFamily=NewsGotT;" vertex="1" parent="1">
          <mxGeometry x="120" y="80" width="180" height="160" as="geometry" />
        </mxCell>
        <mxCell id="oGKbib3P3BIxLK8cS7Yo-2" value="rstn" style="text;html=1;align=left;verticalAlign=middle;resizable=0;points=[];autosize=1;strokeColor=none;fillColor=none;spacing=0;fontFamily=NewsGotT;spacingLeft=3;spacingRight=-10;spacingBottom=-2;spacingTop=-2;" vertex="1" parent="1">
          <mxGeometry x="120" y="108" width="30" height="20" as="geometry" />
        </mxCell>
        <mxCell id="oGKbib3P3BIxLK8cS7Yo-51" value="x_re_i[31:0]" style="edgeStyle=orthogonalEdgeStyle;rounded=0;orthogonalLoop=1;jettySize=auto;html=1;endArrow=none;endFill=0;startArrow=classic;startFill=1;align=right;" edge="1" parent="1" source="oGKbib3P3BIxLK8cS7Yo-3">
          <mxGeometry x="1" y="5" relative="1" as="geometry">
            <mxPoint x="40" y="142" as="targetPoint" />
            <mxPoint x="-5" y="-5" as="offset" />
          </mxGeometry>
        </mxCell>
        <mxCell id="oGKbib3P3BIxLK8cS7Yo-3" value="x_re_i[31:0]" style="text;html=1;align=left;verticalAlign=middle;resizable=0;points=[];autosize=1;strokeColor=none;fillColor=none;spacing=0;fontFamily=NewsGotT;spacingLeft=3;spacingRight=-10;spacingBottom=-2;spacingTop=-2;" vertex="1" parent="1">
          <mxGeometry x="120" y="132" width="60" height="20" as="geometry" />
        </mxCell>
        <mxCell id="oGKbib3P3BIxLK8cS7Yo-52" value="&lt;div align=&quot;right&quot;&gt;x_im_i[31:0]&lt;/div&gt;" style="edgeStyle=orthogonalEdgeStyle;rounded=0;orthogonalLoop=1;jettySize=auto;html=1;strokeColor=default;align=right;verticalAlign=middle;fontFamily=Helvetica;fontSize=11;fontColor=default;labelBackgroundColor=default;startArrow=classic;startFill=1;endArrow=none;endFill=0;" edge="1" parent="1" source="oGKbib3P3BIxLK8cS7Yo-4">
          <mxGeometry x="1" y="5" relative="1" as="geometry">
            <mxPoint x="40" y="167" as="targetPoint" />
            <mxPoint x="-5" y="-5" as="offset" />
          </mxGeometry>
        </mxCell>
        <mxCell id="oGKbib3P3BIxLK8cS7Yo-4" value="x_im_i[31:0]" style="text;html=1;align=left;verticalAlign=middle;resizable=0;points=[];autosize=1;strokeColor=none;fillColor=none;spacing=0;fontFamily=NewsGotT;spacingLeft=3;spacingRight=-10;spacingBottom=-2;spacingTop=-2;" vertex="1" parent="1">
          <mxGeometry x="120" y="157" width="60" height="20" as="geometry" />
        </mxCell>
        <mxCell id="oGKbib3P3BIxLK8cS7Yo-53" value="start_i" style="edgeStyle=orthogonalEdgeStyle;rounded=0;orthogonalLoop=1;jettySize=auto;html=1;strokeColor=default;align=right;verticalAlign=middle;fontFamily=Helvetica;fontSize=11;fontColor=default;labelBackgroundColor=default;startArrow=classic;startFill=1;endArrow=none;endFill=0;" edge="1" parent="1" source="oGKbib3P3BIxLK8cS7Yo-5">
          <mxGeometry x="1" y="-5" relative="1" as="geometry">
            <mxPoint x="40" y="191" as="targetPoint" />
            <mxPoint x="-5" y="4" as="offset" />
          </mxGeometry>
        </mxCell>
        <mxCell id="oGKbib3P3BIxLK8cS7Yo-5" value="start_i" style="text;html=1;align=left;verticalAlign=middle;resizable=0;points=[];autosize=1;strokeColor=none;fillColor=none;fontFamily=NewsGotT;fontSize=12;fontColor=default;spacing=0;spacingLeft=3;spacingRight=-10;spacingBottom=-2;spacingTop=-2;" vertex="1" parent="1">
          <mxGeometry x="120" y="181" width="40" height="20" as="geometry" />
        </mxCell>
        <mxCell id="oGKbib3P3BIxLK8cS7Yo-6" value="dl_busy_i" style="text;html=1;align=left;verticalAlign=middle;resizable=0;points=[];autosize=1;strokeColor=none;fillColor=none;fontFamily=NewsGotT;fontSize=12;fontColor=default;spacing=0;spacingLeft=3;spacingRight=-10;spacingBottom=-2;spacingTop=-2;" vertex="1" parent="1">
          <mxGeometry x="120" y="205" width="50" height="20" as="geometry" />
        </mxCell>
        <mxCell id="oGKbib3P3BIxLK8cS7Yo-7" value="" style="triangle;whiteSpace=wrap;html=1;fontFamily=NewsGotT;movable=1;resizable=1;rotatable=1;deletable=1;editable=1;locked=0;connectable=1;container=0;points=[[0,0.5,0,0,0]];" vertex="1" parent="1">
          <mxGeometry x="120" y="95" width="7.5" height="10" as="geometry" />
        </mxCell>
        <mxCell id="oGKbib3P3BIxLK8cS7Yo-8" value="X_re_o[31:0]" style="text;html=1;align=right;verticalAlign=middle;resizable=0;points=[];autosize=1;strokeColor=none;fillColor=none;fontFamily=NewsGotT;fontSize=12;fontColor=default;spacing=0;spacingRight=3;spacingLeft=-9;spacingBottom=-2;spacingTop=-2;" vertex="1" parent="1">
          <mxGeometry x="230" y="108" width="70" height="20" as="geometry" />
        </mxCell>
        <mxCell id="oGKbib3P3BIxLK8cS7Yo-9" value="X_im_o[31:0]" style="text;html=1;align=right;verticalAlign=middle;resizable=0;points=[];autosize=1;strokeColor=none;fillColor=none;fontFamily=NewsGotT;fontSize=12;fontColor=default;spacing=0;spacingRight=3;spacingLeft=-9;spacingBottom=-2;spacingTop=-2;" vertex="1" parent="1">
          <mxGeometry x="230" y="135" width="70" height="20" as="geometry" />
        </mxCell>
        <mxCell id="oGKbib3P3BIxLK8cS7Yo-10" value="fft_ready_o" style="text;html=1;align=right;verticalAlign=middle;resizable=0;points=[];autosize=1;strokeColor=none;fillColor=none;fontFamily=NewsGotT;fontSize=12;fontColor=default;spacing=0;spacingRight=3;spacingLeft=-9;spacingBottom=-2;spacingTop=-2;" vertex="1" parent="1">
          <mxGeometry x="240" y="163" width="60" height="20" as="geometry" />
        </mxCell>
        <mxCell id="oGKbib3P3BIxLK8cS7Yo-11" value="busy_o" style="text;html=1;align=right;verticalAlign=middle;resizable=0;points=[];autosize=1;strokeColor=none;fillColor=none;fontFamily=NewsGotT;fontSize=12;fontColor=default;spacing=0;spacingRight=3;spacingLeft=-9;spacingBottom=-2;spacingTop=-2;" vertex="1" parent="1">
          <mxGeometry x="260" y="190" width="40" height="20" as="geometry" />
        </mxCell>
        <mxCell id="oGKbib3P3BIxLK8cS7Yo-12" value="&lt;font style=&quot;font-size: 13px;&quot;&gt;&lt;b&gt;iFFT &lt;br&gt;Pipeline&lt;/b&gt;&lt;/font&gt;" style="rounded=0;whiteSpace=wrap;html=1;fontFamily=NewsGotT;" vertex="1" parent="1">
          <mxGeometry x="500" y="305" width="180" height="160" as="geometry" />
        </mxCell>
        <mxCell id="oGKbib3P3BIxLK8cS7Yo-13" value="rstn" style="text;html=1;align=left;verticalAlign=middle;resizable=0;points=[];autosize=1;strokeColor=none;fillColor=none;spacing=0;fontFamily=NewsGotT;spacingLeft=3;spacingRight=-10;spacingBottom=-2;spacingTop=-2;" vertex="1" parent="1">
          <mxGeometry x="500" y="333" width="30" height="20" as="geometry" />
        </mxCell>
        <mxCell id="oGKbib3P3BIxLK8cS7Yo-14" value="X_re_i[31:0]" style="text;html=1;align=left;verticalAlign=middle;resizable=0;points=[];autosize=1;strokeColor=none;fillColor=none;spacing=0;fontFamily=NewsGotT;spacingLeft=3;spacingRight=-10;spacingBottom=-2;spacingTop=-2;" vertex="1" parent="1">
          <mxGeometry x="500" y="357" width="60" height="20" as="geometry" />
        </mxCell>
        <mxCell id="oGKbib3P3BIxLK8cS7Yo-15" value="X_im_i[31:0]" style="text;html=1;align=left;verticalAlign=middle;resizable=0;points=[];autosize=1;strokeColor=none;fillColor=none;spacing=0;fontFamily=NewsGotT;spacingLeft=3;spacingRight=-10;spacingBottom=-2;spacingTop=-2;" vertex="1" parent="1">
          <mxGeometry x="500" y="382" width="70" height="20" as="geometry" />
        </mxCell>
        <mxCell id="oGKbib3P3BIxLK8cS7Yo-16" value="start_i" style="text;html=1;align=left;verticalAlign=middle;resizable=0;points=[];autosize=1;strokeColor=none;fillColor=none;fontFamily=NewsGotT;fontSize=12;fontColor=default;spacing=0;spacingLeft=3;spacingRight=-10;spacingBottom=-2;spacingTop=-2;" vertex="1" parent="1">
          <mxGeometry x="500" y="406" width="40" height="20" as="geometry" />
        </mxCell>
        <mxCell id="oGKbib3P3BIxLK8cS7Yo-17" value="dl_busy_i" style="text;html=1;align=left;verticalAlign=middle;resizable=0;points=[];autosize=1;strokeColor=none;fillColor=none;fontFamily=NewsGotT;fontSize=12;fontColor=default;spacing=0;spacingLeft=3;spacingRight=-10;spacingBottom=-2;spacingTop=-2;" vertex="1" parent="1">
          <mxGeometry x="500" y="430" width="50" height="20" as="geometry" />
        </mxCell>
        <mxCell id="oGKbib3P3BIxLK8cS7Yo-18" value="" style="triangle;whiteSpace=wrap;html=1;fontFamily=NewsGotT;movable=1;resizable=1;rotatable=1;deletable=1;editable=1;locked=0;connectable=1;container=0;points=[];" vertex="1" parent="1">
          <mxGeometry x="500" y="320" width="7.5" height="10" as="geometry" />
        </mxCell>
        <mxCell id="oGKbib3P3BIxLK8cS7Yo-19" value="x_re_o[31:0]" style="text;html=1;align=right;verticalAlign=middle;resizable=0;points=[];autosize=1;strokeColor=none;fillColor=none;fontFamily=NewsGotT;fontSize=12;fontColor=default;spacing=0;spacingRight=3;spacingLeft=-9;spacingBottom=-2;spacingTop=-2;" vertex="1" parent="1">
          <mxGeometry x="610" y="333" width="70" height="20" as="geometry" />
        </mxCell>
        <mxCell id="oGKbib3P3BIxLK8cS7Yo-20" value="x_im_o[31:0]" style="text;html=1;align=right;verticalAlign=middle;resizable=0;points=[];autosize=1;strokeColor=none;fillColor=none;fontFamily=NewsGotT;fontSize=12;fontColor=default;spacing=0;spacingRight=3;spacingLeft=-9;spacingBottom=-2;spacingTop=-2;" vertex="1" parent="1">
          <mxGeometry x="610" y="360" width="70" height="20" as="geometry" />
        </mxCell>
        <mxCell id="oGKbib3P3BIxLK8cS7Yo-21" value="ifft_ready_o" style="text;html=1;align=right;verticalAlign=middle;resizable=0;points=[];autosize=1;strokeColor=none;fillColor=none;fontFamily=NewsGotT;fontSize=12;fontColor=default;spacing=0;spacingRight=3;spacingLeft=-9;spacingBottom=-2;spacingTop=-2;" vertex="1" parent="1">
          <mxGeometry x="620" y="388" width="60" height="20" as="geometry" />
        </mxCell>
        <mxCell id="oGKbib3P3BIxLK8cS7Yo-22" value="busy_o" style="text;html=1;align=right;verticalAlign=middle;resizable=0;points=[];autosize=1;strokeColor=none;fillColor=none;fontFamily=NewsGotT;fontSize=12;fontColor=default;spacing=0;spacingRight=3;spacingLeft=-9;spacingBottom=-2;spacingTop=-2;" vertex="1" parent="1">
          <mxGeometry x="640" y="415" width="40" height="20" as="geometry" />
        </mxCell>
        <mxCell id="oGKbib3P3BIxLK8cS7Yo-23" value="&lt;div&gt;&lt;b&gt;FFT-WAVELET&lt;br&gt;&lt;/b&gt;&lt;/div&gt;&lt;div&gt;&lt;b&gt;MUL&lt;/b&gt;&lt;/div&gt;" style="rounded=0;whiteSpace=wrap;html=1;fontFamily=NewsGotT;" vertex="1" parent="1">
          <mxGeometry x="440" y="80" width="200" height="160" as="geometry" />
        </mxCell>
        <mxCell id="oGKbib3P3BIxLK8cS7Yo-24" value="rstn" style="text;html=1;align=left;verticalAlign=middle;resizable=0;points=[];autosize=1;strokeColor=none;fillColor=none;spacing=0;fontFamily=NewsGotT;spacingLeft=3;spacingRight=-10;spacingBottom=-2;spacingTop=-2;" vertex="1" parent="1">
          <mxGeometry x="440" y="108" width="30" height="20" as="geometry" />
        </mxCell>
        <mxCell id="oGKbib3P3BIxLK8cS7Yo-25" value="x_re_i[31:0]" style="text;html=1;align=left;verticalAlign=middle;resizable=0;points=[];autosize=1;strokeColor=none;fillColor=none;spacing=0;fontFamily=NewsGotT;spacingLeft=3;spacingRight=-10;spacingBottom=-2;spacingTop=-2;" vertex="1" parent="1">
          <mxGeometry x="440" y="132" width="60" height="20" as="geometry" />
        </mxCell>
        <mxCell id="oGKbib3P3BIxLK8cS7Yo-26" value="x_im_i[31:0]" style="text;html=1;align=left;verticalAlign=middle;resizable=0;points=[];autosize=1;strokeColor=none;fillColor=none;spacing=0;fontFamily=NewsGotT;spacingLeft=3;spacingRight=-10;spacingBottom=-2;spacingTop=-2;" vertex="1" parent="1">
          <mxGeometry x="440" y="157" width="60" height="20" as="geometry" />
        </mxCell>
        <mxCell id="oGKbib3P3BIxLK8cS7Yo-27" value="fft_ready_i" style="text;html=1;align=left;verticalAlign=middle;resizable=0;points=[];autosize=1;strokeColor=none;fillColor=none;fontFamily=NewsGotT;fontSize=12;fontColor=default;spacing=0;spacingLeft=3;spacingRight=-10;spacingBottom=-2;spacingTop=-2;" vertex="1" parent="1">
          <mxGeometry x="440" y="181" width="60" height="20" as="geometry" />
        </mxCell>
        <mxCell id="oGKbib3P3BIxLK8cS7Yo-28" value="dl_busy_i" style="text;html=1;align=left;verticalAlign=middle;resizable=0;points=[];autosize=1;strokeColor=none;fillColor=none;fontFamily=NewsGotT;fontSize=12;fontColor=default;spacing=0;spacingLeft=3;spacingRight=-10;spacingBottom=-2;spacingTop=-2;" vertex="1" parent="1">
          <mxGeometry x="440" y="205" width="50" height="20" as="geometry" />
        </mxCell>
        <mxCell id="oGKbib3P3BIxLK8cS7Yo-29" value="" style="triangle;whiteSpace=wrap;html=1;fontFamily=NewsGotT;movable=1;resizable=1;rotatable=1;deletable=1;editable=1;locked=0;connectable=1;container=0;points=[[0,0.5,0,0,0]];" vertex="1" parent="1">
          <mxGeometry x="440" y="95" width="7.5" height="10" as="geometry" />
        </mxCell>
        <mxCell id="oGKbib3P3BIxLK8cS7Yo-30" value="X_re_o[31:0]" style="text;html=1;align=right;verticalAlign=middle;resizable=0;points=[];autosize=1;strokeColor=none;fillColor=none;fontFamily=NewsGotT;fontSize=12;fontColor=default;spacing=0;spacingRight=3;spacingLeft=-9;spacingBottom=-2;spacingTop=-2;" vertex="1" parent="1">
          <mxGeometry x="570" y="108" width="70" height="20" as="geometry" />
        </mxCell>
        <mxCell id="oGKbib3P3BIxLK8cS7Yo-31" value="X_im_o[31:0]" style="text;html=1;align=right;verticalAlign=middle;resizable=0;points=[];autosize=1;strokeColor=none;fillColor=none;fontFamily=NewsGotT;fontSize=12;fontColor=default;spacing=0;spacingRight=3;spacingLeft=-9;spacingBottom=-2;spacingTop=-2;" vertex="1" parent="1">
          <mxGeometry x="570" y="135" width="70" height="20" as="geometry" />
        </mxCell>
        <mxCell id="oGKbib3P3BIxLK8cS7Yo-32" value="mul_done_o" style="text;html=1;align=right;verticalAlign=middle;resizable=0;points=[];autosize=1;strokeColor=none;fillColor=none;fontFamily=NewsGotT;fontSize=12;fontColor=default;spacing=0;spacingRight=3;spacingLeft=-9;spacingBottom=-2;spacingTop=-2;" vertex="1" parent="1">
          <mxGeometry x="580" y="163" width="60" height="20" as="geometry" />
        </mxCell>
        <mxCell id="oGKbib3P3BIxLK8cS7Yo-33" value="busy_o" style="text;html=1;align=right;verticalAlign=middle;resizable=0;points=[];autosize=1;strokeColor=none;fillColor=none;fontFamily=NewsGotT;fontSize=12;fontColor=default;spacing=0;spacingRight=3;spacingLeft=-9;spacingBottom=-2;spacingTop=-2;" vertex="1" parent="1">
          <mxGeometry x="600" y="190" width="40" height="20" as="geometry" />
        </mxCell>
        <mxCell id="oGKbib3P3BIxLK8cS7Yo-35" value="&lt;b&gt;&lt;font style=&quot;font-size: 13px;&quot;&gt;&amp;gt;&amp;gt;&lt;/font&gt;&lt;/b&gt;" style="rounded=0;whiteSpace=wrap;html=1;fontFamily=NewsGotT;" vertex="1" parent="1">
          <mxGeometry x="725" y="80" width="180" height="133" as="geometry" />
        </mxCell>
        <mxCell id="oGKbib3P3BIxLK8cS7Yo-36" value="rstn" style="text;html=1;align=left;verticalAlign=middle;resizable=0;points=[];autosize=1;strokeColor=none;fillColor=none;spacing=0;fontFamily=NewsGotT;spacingLeft=3;spacingRight=-10;spacingBottom=-2;spacingTop=-2;" vertex="1" parent="1">
          <mxGeometry x="725" y="108" width="30" height="20" as="geometry" />
        </mxCell>
        <mxCell id="oGKbib3P3BIxLK8cS7Yo-37" value="x_re_i[31:0]" style="text;html=1;align=left;verticalAlign=middle;resizable=0;points=[];autosize=1;strokeColor=none;fillColor=none;spacing=0;fontFamily=NewsGotT;spacingLeft=3;spacingRight=-10;spacingBottom=-2;spacingTop=-2;" vertex="1" parent="1">
          <mxGeometry x="725" y="132" width="60" height="20" as="geometry" />
        </mxCell>
        <mxCell id="oGKbib3P3BIxLK8cS7Yo-38" value="x_im_i[31:0]" style="text;html=1;align=left;verticalAlign=middle;resizable=0;points=[];autosize=1;strokeColor=none;fillColor=none;spacing=0;fontFamily=NewsGotT;spacingLeft=3;spacingRight=-10;spacingBottom=-2;spacingTop=-2;" vertex="1" parent="1">
          <mxGeometry x="725" y="157" width="60" height="20" as="geometry" />
        </mxCell>
        <mxCell id="oGKbib3P3BIxLK8cS7Yo-39" value="start_i" style="text;html=1;align=left;verticalAlign=middle;resizable=0;points=[];autosize=1;strokeColor=none;fillColor=none;fontFamily=NewsGotT;fontSize=12;fontColor=default;spacing=0;spacingLeft=3;spacingRight=-10;spacingBottom=-2;spacingTop=-2;" vertex="1" parent="1">
          <mxGeometry x="725" y="181" width="40" height="20" as="geometry" />
        </mxCell>
        <mxCell id="oGKbib3P3BIxLK8cS7Yo-41" value="" style="triangle;whiteSpace=wrap;html=1;fontFamily=NewsGotT;movable=1;resizable=1;rotatable=1;deletable=1;editable=1;locked=0;connectable=1;container=0;points=[];" vertex="1" parent="1">
          <mxGeometry x="725" y="95" width="7.5" height="10" as="geometry" />
        </mxCell>
        <mxCell id="oGKbib3P3BIxLK8cS7Yo-42" value="X_re_o[31:0]" style="text;html=1;align=right;verticalAlign=middle;resizable=0;points=[];autosize=1;strokeColor=none;fillColor=none;fontFamily=NewsGotT;fontSize=12;fontColor=default;spacing=0;spacingRight=3;spacingLeft=-9;spacingBottom=-2;spacingTop=-2;" vertex="1" parent="1">
          <mxGeometry x="835" y="108" width="70" height="20" as="geometry" />
        </mxCell>
        <mxCell id="oGKbib3P3BIxLK8cS7Yo-43" value="X_im_o[31:0]" style="text;html=1;align=right;verticalAlign=middle;resizable=0;points=[];autosize=1;strokeColor=none;fillColor=none;fontFamily=NewsGotT;fontSize=12;fontColor=default;spacing=0;spacingRight=3;spacingLeft=-9;spacingBottom=-2;spacingTop=-2;" vertex="1" parent="1">
          <mxGeometry x="835" y="135" width="70" height="20" as="geometry" />
        </mxCell>
        <mxCell id="oGKbib3P3BIxLK8cS7Yo-44" value="start_o" style="text;html=1;align=right;verticalAlign=middle;resizable=0;points=[];autosize=1;strokeColor=none;fillColor=none;fontFamily=NewsGotT;fontSize=12;fontColor=default;spacing=0;spacingRight=3;spacingLeft=-9;spacingBottom=-2;spacingTop=-2;" vertex="1" parent="1">
          <mxGeometry x="865" y="163" width="40" height="20" as="geometry" />
        </mxCell>
        <mxCell id="oGKbib3P3BIxLK8cS7Yo-46" value="clk" style="endArrow=none;html=1;rounded=0;align=right;" edge="1" parent="1">
          <mxGeometry x="-1" y="-10" width="50" height="50" relative="1" as="geometry">
            <mxPoint x="40" y="40" as="sourcePoint" />
            <mxPoint x="680" y="40" as="targetPoint" />
            <mxPoint x="-10" y="-10" as="offset" />
          </mxGeometry>
        </mxCell>
        <mxCell id="oGKbib3P3BIxLK8cS7Yo-47" value="rstn" style="endArrow=none;html=1;rounded=0;align=right;" edge="1" parent="1">
          <mxGeometry x="-1" y="-10" width="50" height="50" relative="1" as="geometry">
            <mxPoint x="40" y="50" as="sourcePoint" />
            <mxPoint x="680" y="50" as="targetPoint" />
            <mxPoint x="-10" y="-10" as="offset" />
          </mxGeometry>
        </mxCell>
        <mxCell id="oGKbib3P3BIxLK8cS7Yo-49" value="" style="endArrow=classic;html=1;rounded=0;entryX=-0.01;entryY=0.596;entryDx=0;entryDy=0;entryPerimeter=0;edgeStyle=orthogonalEdgeStyle;startArrow=oval;startFill=1;startSize=3;" edge="1" parent="1" target="oGKbib3P3BIxLK8cS7Yo-2">
          <mxGeometry width="50" height="50" relative="1" as="geometry">
            <mxPoint x="100" y="50" as="sourcePoint" />
            <mxPoint x="500" y="280" as="targetPoint" />
            <Array as="points">
              <mxPoint x="100" y="50" />
              <mxPoint x="100" y="120" />
            </Array>
          </mxGeometry>
        </mxCell>
        <mxCell id="oGKbib3P3BIxLK8cS7Yo-50" value="" style="endArrow=oval;html=1;rounded=0;edgeStyle=orthogonalEdgeStyle;exitX=0;exitY=0.5;exitDx=0;exitDy=0;exitPerimeter=0;endFill=1;endSize=3;" edge="1" parent="1" source="oGKbib3P3BIxLK8cS7Yo-7">
          <mxGeometry width="50" height="50" relative="1" as="geometry">
            <mxPoint x="115" y="90" as="sourcePoint" />
            <mxPoint x="110" y="40" as="targetPoint" />
          </mxGeometry>
        </mxCell>
        <mxCell id="oGKbib3P3BIxLK8cS7Yo-55" style="edgeStyle=orthogonalEdgeStyle;rounded=0;orthogonalLoop=1;jettySize=auto;html=1;entryX=-0.002;entryY=0.584;entryDx=0;entryDy=0;entryPerimeter=0;" edge="1" parent="1" source="oGKbib3P3BIxLK8cS7Yo-33" target="oGKbib3P3BIxLK8cS7Yo-6">
          <mxGeometry relative="1" as="geometry">
            <Array as="points">
              <mxPoint x="660" y="200" />
              <mxPoint x="660" y="250" />
              <mxPoint x="100" y="250" />
              <mxPoint x="100" y="217" />
            </Array>
          </mxGeometry>
        </mxCell>
        <mxCell id="oGKbib3P3BIxLK8cS7Yo-56" style="edgeStyle=orthogonalEdgeStyle;rounded=0;orthogonalLoop=1;jettySize=auto;html=1;entryX=-0.007;entryY=0.614;entryDx=0;entryDy=0;entryPerimeter=0;" edge="1" parent="1" source="oGKbib3P3BIxLK8cS7Yo-8" target="oGKbib3P3BIxLK8cS7Yo-25">
          <mxGeometry relative="1" as="geometry" />
        </mxCell>
        <mxCell id="oGKbib3P3BIxLK8cS7Yo-57" style="edgeStyle=orthogonalEdgeStyle;rounded=0;orthogonalLoop=1;jettySize=auto;html=1;entryX=-0.005;entryY=0.576;entryDx=0;entryDy=0;entryPerimeter=0;" edge="1" parent="1" source="oGKbib3P3BIxLK8cS7Yo-9" target="oGKbib3P3BIxLK8cS7Yo-26">
          <mxGeometry relative="1" as="geometry">
            <Array as="points">
              <mxPoint x="360" y="145" />
              <mxPoint x="360" y="169" />
            </Array>
          </mxGeometry>
        </mxCell>
        <mxCell id="oGKbib3P3BIxLK8cS7Yo-58" style="edgeStyle=orthogonalEdgeStyle;rounded=0;orthogonalLoop=1;jettySize=auto;html=1;entryX=-0.013;entryY=0.544;entryDx=0;entryDy=0;entryPerimeter=0;" edge="1" parent="1" source="oGKbib3P3BIxLK8cS7Yo-10" target="oGKbib3P3BIxLK8cS7Yo-27">
          <mxGeometry relative="1" as="geometry">
            <Array as="points">
              <mxPoint x="350" y="173" />
              <mxPoint x="350" y="192" />
            </Array>
          </mxGeometry>
        </mxCell>
        <mxCell id="oGKbib3P3BIxLK8cS7Yo-60" value="" style="endArrow=classic;html=1;rounded=0;entryX=-0.01;entryY=0.596;entryDx=0;entryDy=0;entryPerimeter=0;edgeStyle=orthogonalEdgeStyle;startArrow=oval;startFill=1;startSize=3;" edge="1" parent="1">
          <mxGeometry width="50" height="50" relative="1" as="geometry">
            <mxPoint x="420" y="50" as="sourcePoint" />
            <mxPoint x="440" y="120" as="targetPoint" />
            <Array as="points">
              <mxPoint x="420" y="50" />
              <mxPoint x="420" y="120" />
            </Array>
          </mxGeometry>
        </mxCell>
        <mxCell id="oGKbib3P3BIxLK8cS7Yo-61" value="" style="endArrow=oval;html=1;rounded=0;edgeStyle=orthogonalEdgeStyle;endFill=1;endSize=3;exitX=0;exitY=0.5;exitDx=0;exitDy=0;exitPerimeter=0;" edge="1" parent="1" source="oGKbib3P3BIxLK8cS7Yo-29">
          <mxGeometry width="50" height="50" relative="1" as="geometry">
            <mxPoint x="435" y="100" as="sourcePoint" />
            <mxPoint x="430" y="40" as="targetPoint" />
          </mxGeometry>
        </mxCell>
        <mxCell id="oGKbib3P3BIxLK8cS7Yo-62" style="edgeStyle=orthogonalEdgeStyle;rounded=0;orthogonalLoop=1;jettySize=auto;html=1;entryX=0.007;entryY=0.621;entryDx=0;entryDy=0;entryPerimeter=0;" edge="1" parent="1" source="oGKbib3P3BIxLK8cS7Yo-32" target="oGKbib3P3BIxLK8cS7Yo-39">
          <mxGeometry relative="1" as="geometry" />
        </mxCell>
        <mxCell id="oGKbib3P3BIxLK8cS7Yo-63" style="edgeStyle=orthogonalEdgeStyle;rounded=0;orthogonalLoop=1;jettySize=auto;html=1;entryX=0.005;entryY=0.564;entryDx=0;entryDy=0;entryPerimeter=0;" edge="1" parent="1" source="oGKbib3P3BIxLK8cS7Yo-31" target="oGKbib3P3BIxLK8cS7Yo-38">
          <mxGeometry relative="1" as="geometry">
            <Array as="points">
              <mxPoint x="690" y="145" />
              <mxPoint x="690" y="168" />
            </Array>
          </mxGeometry>
        </mxCell>
        <mxCell id="oGKbib3P3BIxLK8cS7Yo-64" style="edgeStyle=orthogonalEdgeStyle;rounded=0;orthogonalLoop=1;jettySize=auto;html=1;entryX=-0.005;entryY=0.557;entryDx=0;entryDy=0;entryPerimeter=0;" edge="1" parent="1" source="oGKbib3P3BIxLK8cS7Yo-30" target="oGKbib3P3BIxLK8cS7Yo-37">
          <mxGeometry relative="1" as="geometry">
            <Array as="points">
              <mxPoint x="700" y="118" />
              <mxPoint x="700" y="143" />
            </Array>
          </mxGeometry>
        </mxCell>
      </root>
    </mxGraphModel>
  </diagram>
</mxfile>
